<?xml version="1.0" encoding="utf-8"?>
<!-- Generator: Adobe Illustrator 16.0.4, SVG Export Plug-In . SVG Version: 6.00 Build 0)  -->
<!DOCTYPE svg PUBLIC "-//W3C//DTD SVG 1.1//EN" "http://www.w3.org/Graphics/SVG/1.1/DTD/svg11.dtd">
<svg version="1.1" id="Layer_1" xmlns="http://www.w3.org/2000/svg" xmlns:xlink="http://www.w3.org/1999/xlink" x="0px" y="0px"
	 width="50px" height="50px" viewBox="0 0 50 50" enable-background="new 0 0 50 50" xml:space="preserve">
<path d="M25.221,12c-0.036,0-0.07,0.009-0.104,0.009c-0.106-0.003-0.211-0.01-0.318-0.009H25.221z M25.057,28.273
	c-0.019,0-0.036-0.003-0.055-0.003c-0.014,0-0.027,0.003-0.041,0.003H25.057z M19.109,22.286c0.015-0.003,0.026-0.019,0.042-0.023
	c0.941,3.405,3.377,5.953,5.852,6.007c2.255-0.104,5.022-2.606,5.944-5.993c0.424,0.026,0.848-0.474,0.966-1.17
	c0.123-0.726-0.134-1.374-0.572-1.449c-0.028-0.005-0.056,0.013-0.084,0.014c-0.127-5.603-2.789-7.579-6.141-7.664
	c-3.456,0.016-6.551,2.418-6.355,7.665c-0.033,0-0.064-0.021-0.096-0.015c-0.439,0.075-0.695,0.723-0.572,1.449
	C18.213,21.831,18.669,22.359,19.109,22.286z M29.659,29.242l-3.14,6.145l-0.496-3.997l0.775-0.635H24.92h-1.717l0.776,0.635
	l-0.497,3.997l-3.137-6.145c-5.456,0.735-9.373,3.073-9.373,8.758h28.055C39.029,32.314,35.113,29.978,29.659,29.242z"/>
</svg>
