<?xml version="1.0" encoding="utf-8"?>
<!-- Generator: Adobe Illustrator 16.0.4, SVG Export Plug-In . SVG Version: 6.00 Build 0)  -->
<!DOCTYPE svg PUBLIC "-//W3C//DTD SVG 1.1//EN" "http://www.w3.org/Graphics/SVG/1.1/DTD/svg11.dtd">
<svg version="1.1" id="Layer_1" xmlns="http://www.w3.org/2000/svg" xmlns:xlink="http://www.w3.org/1999/xlink" x="0px" y="0px"
	 width="50px" height="50px" viewBox="0 0 50 50" enable-background="new 0 0 50 50" xml:space="preserve">
<g>
	<path d="M12.593,21.225c-0.12-0.705,0.13-1.332,0.55-1.406c0.033-0.004,0.065,0.014,0.095,0.017
		c-0.194-5.084,2.803-7.416,6.15-7.437c3.253,0.078,5.832,1.984,5.963,7.42c0.027-0.004,0.051-0.021,0.078-0.014
		c0.425,0.068,0.678,0.7,0.562,1.402c-0.118,0.674-0.526,1.159-0.938,1.136c-0.892,3.283-3.571,5.714-5.756,5.815
		c-2.396-0.053-4.76-2.52-5.676-5.817c-0.016,0.007-0.027,0.021-0.042,0.021C13.151,22.436,12.713,21.928,12.593,21.225z
		 M23.793,29.091l-3.035,5.96l-0.487-3.873l0.752-0.615h-1.817l-1.665,0.004l0.751,0.615l-0.476,3.875l-3.046-5.955
		c-5.288,0.722-9.082,2.994-9.073,8.5l27.188-0.031C32.879,32.062,29.08,29.799,23.793,29.091z M41.545,23.027l0.15,0.598
		l2.608-0.66l-0.151-0.596L41.545,23.027z M38.172,20.023c-0.078,0-0.158,0.008-0.237,0.025c-0.025,0.006-0.051,0.018-0.077,0.025
		l-0.001-0.008l-0.047,0.022l-0.238,0.12l-8.828,4.42c-0.062-0.197-0.383-0.295-0.734-0.212c-0.361,0.083-0.617,0.321-0.567,0.528
		l0.58,2.502c0.049,0.209,0.38,0.312,0.742,0.228c0.353-0.083,0.597-0.31,0.565-0.515l1.678,0.017l-0.023,0.546
		c-0.009,0.196,0.062,0.387,0.194,0.531c0.134,0.145,0.317,0.229,0.514,0.236l3.151,0.134c0.012,0,0.024,0.002,0.036,0.002
		c0.185,0,0.361-0.069,0.499-0.196c0.145-0.133,0.229-0.314,0.237-0.513l0.028-0.698l3.652,0.031
		c0.022,0.004,0.046,0.011,0.069,0.011c0.029,0,0.059-0.005,0.088-0.007h0.068l-0.002-0.009c0.027-0.003,0.055-0.003,0.082-0.009
		c1.044-0.243,1.521-2.047,1.062-4.032C40.236,21.368,39.161,20.021,38.172,20.023z M34.999,27.896
		c-0.002,0.043-0.021,0.067-0.039,0.086c-0.016,0.012-0.048,0.029-0.09,0.029l-3.154-0.133c-0.044-0.003-0.072-0.023-0.085-0.04
		c-0.013-0.015-0.035-0.043-0.032-0.088l0.023-0.567l3.405,0.031L34.999,27.896z M39.464,26.639
		c-0.027,0.006-0.054,0.008-0.083,0.01c-0.006,0-0.011,0.002-0.018,0.002c-0.609,0-1.515-1.088-1.891-2.707
		c-0.403-1.741,0.03-3.03,0.526-3.256c0.024-0.013,0.049-0.032,0.072-0.037c0.033-0.01,0.066-0.012,0.101-0.012
		c0.61,0,1.515,1.086,1.89,2.707C40.486,25.173,39.989,26.518,39.464,26.639z M41.67,25.477l2.634,0.541l-0.124,0.604l-2.634-0.541
		L41.67,25.477z M43.301,19.826l-2.305,1.382l-0.317-0.526l2.306-1.384L43.301,19.826z"/>
</g>
</svg>
